<svg width="64" height="64" viewBox="0 0 64 64" fill="none" xmlns="http://www.w3.org/2000/svg">
<circle cx="32" cy="32" r="32" fill="black"/>
<path d="M19.25 49V14.0909H34.3864C37.0455 14.0909 39.2784 14.4489 41.0852 15.1648C42.9034 15.8807 44.2727 16.892 45.1932 18.1989C46.125 19.5057 46.5909 21.0455 46.5909 22.8182C46.5909 24.1023 46.3068 25.2727 45.7386 26.3295C45.1818 27.3864 44.3977 28.2727 43.3864 28.9886C42.375 29.6932 41.1932 30.1818 39.8409 30.4545V30.7955C41.3409 30.8523 42.7045 31.233 43.9318 31.9375C45.1591 32.6307 46.1364 33.5909 46.8636 34.8182C47.5909 36.0341 47.9545 37.4659 47.9545 39.1136C47.9545 41.0227 47.4545 42.7216 46.4545 44.2102C45.4659 45.6989 44.0568 46.8693 42.2273 47.7216C40.3977 48.5739 38.2159 49 35.6818 49H19.25ZM28.7273 41.4318H33.1591C34.75 41.4318 35.9432 41.1364 36.7386 40.5455C37.5341 39.9432 37.9318 39.0568 37.9318 37.8864C37.9318 37.0682 37.7443 36.375 37.3693 35.8068C36.9943 35.2386 36.4602 34.8068 35.767 34.5114C35.0852 34.2159 34.2614 34.0682 33.2955 34.0682H28.7273V41.4318ZM28.7273 28.2045H32.6136C33.4432 28.2045 34.1761 28.0739 34.8125 27.8125C35.4489 27.5511 35.9432 27.1761 36.2955 26.6875C36.6591 26.1875 36.8409 25.5795 36.8409 24.8636C36.8409 23.7841 36.4545 22.9602 35.6818 22.392C34.9091 21.8125 33.9318 21.5227 32.75 21.5227H28.7273V28.2045Z" fill="white"/>
</svg>
